<svg width="20" height="20" viewBox="0 0 20 20" fill="none" xmlns="http://www.w3.org/2000/svg">
<path d="M18.9461 6.30499C18.936 5.54761 18.7942 4.79776 18.5271 4.08899C18.2954 3.49114 17.9416 2.94819 17.4883 2.49482C17.0349 2.04145 16.4919 1.68764 15.8941 1.45599C15.1944 1.19334 14.4553 1.05133 13.7081 1.03599C12.7461 0.992988 12.4411 0.980988 9.99909 0.980988C7.55709 0.980988 7.24409 0.980988 6.28909 1.03599C5.54225 1.05144 4.80344 1.19346 4.10409 1.45599C3.50615 1.68748 2.96311 2.04123 2.50973 2.49462C2.05634 2.94801 1.70258 3.49105 1.47109 4.08899C1.20792 4.78812 1.06622 5.5271 1.05209 6.27399C1.00909 7.23699 0.996094 7.54199 0.996094 9.98399C0.996094 12.426 0.996094 12.738 1.05209 13.694C1.06709 14.442 1.20809 15.18 1.47109 15.881C1.70297 16.4787 2.05699 17.0216 2.51053 17.4748C2.96407 17.928 3.50716 18.2816 4.10509 18.513C4.80253 18.7862 5.54147 18.9384 6.29009 18.963C7.25309 19.006 7.55809 19.019 10.0001 19.019C12.4421 19.019 12.7551 19.019 13.7101 18.963C14.4572 18.9483 15.1965 18.8066 15.8961 18.544C16.4938 18.3121 17.0366 17.9582 17.4899 17.5048C17.9433 17.0515 18.2972 16.5087 18.5291 15.911C18.7921 15.211 18.9331 14.473 18.9481 13.724C18.9911 12.762 19.0041 12.457 19.0041 10.014C19.0021 7.57199 19.0021 7.26199 18.9461 6.30499ZM9.99309 14.602C7.43909 14.602 5.37009 12.533 5.37009 9.97899C5.37009 7.42499 7.43909 5.35599 9.99309 5.35599C11.2192 5.35599 12.3951 5.84305 13.262 6.71003C14.129 7.57701 14.6161 8.75289 14.6161 9.97899C14.6161 11.2051 14.129 12.381 13.262 13.2479C12.3951 14.1149 11.2192 14.602 9.99309 14.602ZM14.8001 6.26299C14.2031 6.26299 13.7221 5.78099 13.7221 5.18499C13.7221 5.04349 13.75 4.90337 13.8041 4.77265C13.8583 4.64192 13.9376 4.52314 14.0377 4.42308C14.1377 4.32302 14.2565 4.24366 14.3873 4.18951C14.518 4.13536 14.6581 4.10749 14.7996 4.10749C14.9411 4.10749 15.0812 4.13536 15.2119 4.18951C15.3427 4.24366 15.4614 4.32302 15.5615 4.42308C15.6616 4.52314 15.7409 4.64192 15.7951 4.77265C15.8492 4.90337 15.8771 5.04349 15.8771 5.18499C15.8771 5.78099 15.3951 6.26299 14.8001 6.26299Z" fill="#C98A40"/>
</svg>
