<svg width="16" height="15" viewBox="0 0 16 15" fill="none" xmlns="http://www.w3.org/2000/svg">
<path d="M14.9633 5.20694L10.5002 4.55831L8.50509 0.513581C8.4506 0.402839 8.36095 0.31319 8.25021 0.258698C7.97247 0.121589 7.63497 0.235846 7.49611 0.513581L5.50099 4.55831L1.0379 5.20694C0.914855 5.22452 0.802355 5.28253 0.716223 5.37042C0.612093 5.47744 0.554712 5.62143 0.55669 5.77074C0.558668 5.92006 0.619841 6.06247 0.726769 6.16671L3.95587 9.31495L3.19298 13.7605C3.17509 13.8639 3.18653 13.9702 3.22601 14.0675C3.26549 14.1647 3.33143 14.2489 3.41634 14.3106C3.50126 14.3723 3.60175 14.4089 3.70644 14.4164C3.81112 14.4239 3.9158 14.4018 4.00861 14.3528L8.0006 12.254L11.9926 14.3528C12.1016 14.4108 12.2281 14.4302 12.3494 14.4091C12.6553 14.3564 12.861 14.0663 12.8082 13.7605L12.0453 9.31495L15.2744 6.16671C15.3623 6.08057 15.4203 5.96807 15.4379 5.84503C15.4854 5.53741 15.2709 5.25264 14.9633 5.20694Z" fill="#C98A40"/>
</svg>
