<svg width="20" height="16" viewBox="0 0 20 16" fill="none" xmlns="http://www.w3.org/2000/svg">
<path d="M19.7504 1.96015C19.0332 2.26953 18.2527 2.49218 17.4488 2.5789C18.2835 2.08305 18.9085 1.29968 19.2066 0.375776C18.4234 0.841688 17.5654 1.16839 16.6707 1.3414C16.2967 0.941619 15.8445 0.623135 15.342 0.405793C14.8396 0.188452 14.2978 0.0769102 13.7504 0.0781195C11.5355 0.0781195 9.7543 1.87343 9.7543 4.07656C9.7543 4.38593 9.7918 4.69531 9.85273 4.99296C6.53633 4.81953 3.57852 3.23515 1.61211 0.809369C1.25381 1.42136 1.06605 2.11818 1.06836 2.82734C1.06836 4.21484 1.77383 5.43828 2.84961 6.15781C2.21564 6.13284 1.59651 5.95858 1.04258 5.64921V5.69843C1.04258 7.6414 2.41602 9.25156 4.24648 9.62187C3.90279 9.71114 3.54924 9.75681 3.19414 9.75781C2.93398 9.75781 2.68789 9.73203 2.43945 9.69687C2.9457 11.2812 4.41992 12.432 6.17539 12.4695C4.80195 13.5453 3.08164 14.1781 1.21367 14.1781C0.878516 14.1781 0.569141 14.1664 0.248047 14.1289C2.01992 15.2656 4.12227 15.9219 6.38633 15.9219C13.7363 15.9219 17.7582 9.83281 17.7582 4.54765C17.7582 4.37421 17.7582 4.20078 17.7465 4.02734C18.5246 3.45781 19.2066 2.75234 19.7504 1.96015Z" fill="#C98A40"/>
</svg>
